<svg version="1.1" viewBox="0 0 1024 1024" xmlns="http://www.w3.org/2000/svg">
  <g stroke="lightgray" stroke-dasharray="1,1" stroke-width="1" transform="scale(4, 4)">
    <line x1="0" y1="0" x2="256" y2="256"/>
    <line x1="256" y1="0" x2="0" y2="256"/>
    <line x1="128" y1="0" x2="128" y2="256"/>
    <line x1="0" y1="128" x2="256" y2="128"/>
  </g>
  <g transform="scale(1, -1) translate(0, -900)">
    <style type="text/css">
        .stroke1 {fill: #9a3324;}
        .stroke2 {fill: #b5651d;}
        .stroke3 {fill: #2f6f4f;}
        .stroke4 {fill: #3f7a7a;}
        .stroke5 {fill: #4a5d8a;}
        .stroke6 {fill: #6b4c7a;}
        .stroke7 {fill: #7a5230;}
        .stroke8 {fill: #55575c;}
        .stroke9 {fill: #9a3324;}
        .stroke10 {fill: #b5651d;}
        .stroke11 {fill: #2f6f4f;}
        .stroke12 {fill: #3f7a7a;}
        .stroke13 {fill: #4a5d8a;}
        .stroke14 {fill: #6b4c7a;}
        .stroke15 {fill: #7a5230;}
        .stroke16 {fill: #55575c;}
        .stroke17 {fill: #9a3324;}
        .stroke18 {fill: #b5651d;}
        .stroke19 {fill: #2f6f4f;}
        .stroke20 {fill: #3f7a7a;}
        text {
            font-family: Helvetica;
            font-size: 50px;
            fill: #FFFFFF;
            paint-order: stroke;
            stroke: #000000;
            stroke-width: 4px;
            stroke-linecap: butt;
            stroke-linejoin: miter;
            font-weight: 800;
        }
    </style>

    <path d="M 326 667 Q 283 663 312 640 Q 369 610 428 623 Q 543 641 665 661 Q 720 671 729 678 Q 739 688 735 698 Q 728 711 693 722 Q 660 731 561 701 Q 420 673 326 667 Z" class="stroke1"/>
    <path d="M 329 421 Q 304 417 332 392 Q 348 379 385 383 Q 557 405 685 416 Q 721 420 709 440 Q 694 462 657 472 Q 621 479 558 466 Q 435 441 329 421 Z" class="stroke2"/>
    <path d="M 130 165 Q 102 162 122 139 Q 140 120 163 113 Q 191 104 212 110 Q 515 179 929 157 Q 930 158 933 157 Q 960 156 967 167 Q 974 183 953 201 Q 884 255 835 246 Q 643 210 130 165 Z" class="stroke3"/>
    <text x="316" y="655" style="transform-origin:316px 655px; transform:scale(1,-1);">1</text>
    <text x="331" y="407" style="transform-origin:331px 407px; transform:scale(1,-1);">2</text>
    <text x="127" y="152" style="transform-origin:127px 152px; transform:scale(1,-1);">3</text></g>
</svg>