<svg version="1.1" viewBox="0 0 1024 1024" xmlns="http://www.w3.org/2000/svg">
  <g stroke="lightgray" stroke-dasharray="1,1" stroke-width="1" transform="scale(4, 4)">
    <line x1="0" y1="0" x2="256" y2="256"/>
    <line x1="256" y1="0" x2="0" y2="256"/>
    <line x1="128" y1="0" x2="128" y2="256"/>
    <line x1="0" y1="128" x2="256" y2="128"/>
  </g>
  <g transform="scale(1, -1) translate(0, -900)">
    <style type="text/css">
        .stroke1 {fill: #9a3324;}
        .stroke2 {fill: #b5651d;}
        .stroke3 {fill: #2f6f4f;}
        .stroke4 {fill: #3f7a7a;}
        .stroke5 {fill: #4a5d8a;}
        .stroke6 {fill: #6b4c7a;}
        .stroke7 {fill: #7a5230;}
        .stroke8 {fill: #55575c;}
        .stroke9 {fill: #9a3324;}
        .stroke10 {fill: #b5651d;}
        .stroke11 {fill: #2f6f4f;}
        .stroke12 {fill: #3f7a7a;}
        .stroke13 {fill: #4a5d8a;}
        .stroke14 {fill: #6b4c7a;}
        .stroke15 {fill: #7a5230;}
        .stroke16 {fill: #55575c;}
        .stroke17 {fill: #9a3324;}
        .stroke18 {fill: #b5651d;}
        .stroke19 {fill: #2f6f4f;}
        .stroke20 {fill: #3f7a7a;}
        text {
            font-family: Helvetica;
            font-size: 50px;
            fill: #FFFFFF;
            paint-order: stroke;
            stroke: #000000;
            stroke-width: 4px;
            stroke-linecap: butt;
            stroke-linejoin: miter;
            font-weight: 800;
        }
    </style>

    <path d="M 520 688 Q 758 710 827 705 Q 920 702 927 705 Q 927 706 929 707 Q 936 722 923 735 Q 848 801 781 778 Q 673 757 477 733 Q 173 697 130 695 Q 123 696 116 695 Q 101 695 100 683 Q 99 670 120 654 Q 138 641 172 629 Q 184 625 203 633 Q 219 640 294 653 Q 376 674 478 684 L 520 688 Z" class="stroke1"/>
    <path d="M 544 524 Q 544 642 547 654 Q 551 667 541 675 Q 534 682 520 688 C 494 703 470 713 478 684 Q 499 648 485 268 Q 473 39 480 22 Q 486 6 498 -8 Q 511 -24 523 -5 Q 553 53 546 104 Q 540 161 544 492 L 544 524 Z" class="stroke2"/>
    <path d="M 544 492 Q 620 446 712 378 Q 733 360 749 359 Q 759 359 765 371 Q 775 387 753 430 Q 723 493 544 524 C 514 529 518 508 544 492 Z" class="stroke3"/>
    <text x="113" y="682" style="transform-origin:113px 682px; transform:scale(1,-1);">1</text>
    <text x="487" y="681" style="transform-origin:487px 681px; transform:scale(1,-1);">2</text>
    <text x="555" y="519" style="transform-origin:555px 519px; transform:scale(1,-1);">3</text></g>
</svg>