<svg version="1.1" viewBox="0 0 1024 1024" xmlns="http://www.w3.org/2000/svg">
  <g stroke="lightgray" stroke-dasharray="1,1" stroke-width="1" transform="scale(4, 4)">
    <line x1="0" y1="0" x2="256" y2="256"/>
    <line x1="256" y1="0" x2="0" y2="256"/>
    <line x1="128" y1="0" x2="128" y2="256"/>
    <line x1="0" y1="128" x2="256" y2="128"/>
  </g>
  <g transform="scale(1, -1) translate(0, -900)">
    <style type="text/css">
        .stroke1 {fill: #9a3324;}
        .stroke2 {fill: #b5651d;}
        .stroke3 {fill: #2f6f4f;}
        .stroke4 {fill: #3f7a7a;}
        .stroke5 {fill: #4a5d8a;}
        .stroke6 {fill: #6b4c7a;}
        .stroke7 {fill: #7a5230;}
        .stroke8 {fill: #55575c;}
        .stroke9 {fill: #9a3324;}
        .stroke10 {fill: #b5651d;}
        .stroke11 {fill: #2f6f4f;}
        .stroke12 {fill: #3f7a7a;}
        .stroke13 {fill: #4a5d8a;}
        .stroke14 {fill: #6b4c7a;}
        .stroke15 {fill: #7a5230;}
        .stroke16 {fill: #55575c;}
        .stroke17 {fill: #9a3324;}
        .stroke18 {fill: #b5651d;}
        .stroke19 {fill: #2f6f4f;}
        .stroke20 {fill: #3f7a7a;}
        text {
            font-family: Helvetica;
            font-size: 50px;
            fill: #FFFFFF;
            paint-order: stroke;
            stroke: #000000;
            stroke-width: 4px;
            stroke-linecap: butt;
            stroke-linejoin: miter;
            font-weight: 800;
        }
    </style>

    <path d="M 388 486 Q 319 225 74 56 Q 59 44 74 41 Q 92 42 133 60 Q 217 103 278 166 Q 348 230 380 303 Q 438 441 451 505 L 456 539 Q 456 593 481 702 Q 487 733 500 762 Q 510 784 490 795 Q 430 835 398 823 Q 382 817 390 799 Q 411 762 412 689 Q 402 550 396 523 L 388 486 Z" class="stroke1"/>
    <path d="M 451 505 Q 520 527 570 535 Q 592 539 598 534 Q 602 527 598 511 Q 490 112 639 36 Q 676 18 741 10 Q 877 -3 968 54 Q 989 66 980 90 Q 961 156 954 255 Q 953 274 946 273 Q 940 273 935 254 Q 925 212 913 164 Q 903 127 879 104 Q 860 86 800 80 Q 733 70 679 89 Q 631 104 616 136 Q 594 173 602 259 Q 612 350 654 464 Q 673 512 702 538 Q 718 551 717 564 Q 716 576 646 607 Q 631 617 613 602 Q 568 572 456 539 L 396 523 Q 335 510 278 493 Q 232 483 156 482 Q 141 483 144 467 Q 147 455 174 439 Q 205 421 243 437 Q 321 465 388 486 L 451 505 Z" class="stroke2"/>
    <text x="402" y="808" style="transform-origin:402px 808px; transform:scale(1,-1);">1</text>
    <text x="153" y="472" style="transform-origin:153px 472px; transform:scale(1,-1);">2</text></g>
</svg>