<svg version="1.1" viewBox="0 0 1024 1024" xmlns="http://www.w3.org/2000/svg">
  <g stroke="lightgray" stroke-dasharray="1,1" stroke-width="1" transform="scale(4, 4)">
    <line x1="0" y1="0" x2="256" y2="256"/>
    <line x1="256" y1="0" x2="0" y2="256"/>
    <line x1="128" y1="0" x2="128" y2="256"/>
    <line x1="0" y1="128" x2="256" y2="128"/>
  </g>
  <g transform="scale(1, -1) translate(0, -900)">
    <style type="text/css">
        .stroke1 {fill: #9a3324;}
        .stroke2 {fill: #b5651d;}
        .stroke3 {fill: #2f6f4f;}
        .stroke4 {fill: #3f7a7a;}
        .stroke5 {fill: #4a5d8a;}
        .stroke6 {fill: #6b4c7a;}
        .stroke7 {fill: #7a5230;}
        .stroke8 {fill: #55575c;}
        .stroke9 {fill: #9a3324;}
        .stroke10 {fill: #b5651d;}
        .stroke11 {fill: #2f6f4f;}
        .stroke12 {fill: #3f7a7a;}
        .stroke13 {fill: #4a5d8a;}
        .stroke14 {fill: #6b4c7a;}
        .stroke15 {fill: #7a5230;}
        .stroke16 {fill: #55575c;}
        .stroke17 {fill: #9a3324;}
        .stroke18 {fill: #b5651d;}
        .stroke19 {fill: #2f6f4f;}
        .stroke20 {fill: #3f7a7a;}
        text {
            font-family: Helvetica;
            font-size: 50px;
            fill: #FFFFFF;
            paint-order: stroke;
            stroke: #000000;
            stroke-width: 4px;
            stroke-linecap: butt;
            stroke-linejoin: miter;
            font-weight: 800;
        }
    </style>

    <path d="M 475 485 Q 547 653 563 683 Q 573 695 565 708 Q 558 721 519 742 Q 491 757 480 754 Q 462 750 465 730 Q 484 537 292 308 Q 280 296 269 284 Q 212 217 68 102 Q 58 92 66 89 Q 76 86 90 92 Q 190 138 274 210 Q 380 294 462 456 L 475 485 Z" class="stroke1"/>
    <path d="M 462 456 Q 480 423 575 292 Q 666 171 733 101 Q 764 67 793 69 Q 881 75 958 79 Q 991 80 992 89 Q 993 98 956 112 Q 772 178 740 205 Q 617 304 490 466 Q 481 476 475 485 C 457 509 447 482 462 456 Z" class="stroke2"/>
    <text x="483" y="736" style="transform-origin:483px 736px; transform:scale(1,-1);">1</text>
    <text x="474" y="477" style="transform-origin:474px 477px; transform:scale(1,-1);">2</text></g>
</svg>