<svg version="1.1" viewBox="0 0 1024 1024" xmlns="http://www.w3.org/2000/svg">
  <g stroke="lightgray" stroke-dasharray="1,1" stroke-width="1" transform="scale(4, 4)">
    <line x1="0" y1="0" x2="256" y2="256"/>
    <line x1="256" y1="0" x2="0" y2="256"/>
    <line x1="128" y1="0" x2="128" y2="256"/>
    <line x1="0" y1="128" x2="256" y2="128"/>
  </g>
  <g transform="scale(1, -1) translate(0, -900)">
    <style type="text/css">
        .stroke1 {fill: #9a3324;}
        .stroke2 {fill: #b5651d;}
        .stroke3 {fill: #2f6f4f;}
        .stroke4 {fill: #3f7a7a;}
        .stroke5 {fill: #4a5d8a;}
        .stroke6 {fill: #6b4c7a;}
        .stroke7 {fill: #7a5230;}
        .stroke8 {fill: #55575c;}
        .stroke9 {fill: #9a3324;}
        .stroke10 {fill: #b5651d;}
        .stroke11 {fill: #2f6f4f;}
        .stroke12 {fill: #3f7a7a;}
        .stroke13 {fill: #4a5d8a;}
        .stroke14 {fill: #6b4c7a;}
        .stroke15 {fill: #7a5230;}
        .stroke16 {fill: #55575c;}
        .stroke17 {fill: #9a3324;}
        .stroke18 {fill: #b5651d;}
        .stroke19 {fill: #2f6f4f;}
        .stroke20 {fill: #3f7a7a;}
        text {
            font-family: Helvetica;
            font-size: 50px;
            fill: #FFFFFF;
            paint-order: stroke;
            stroke: #000000;
            stroke-width: 4px;
            stroke-linecap: butt;
            stroke-linejoin: miter;
            font-weight: 800;
        }
    </style>

    <path d="M 499 518 Q 414 338 228 186 Q 180 147 112 96 Q 99 83 109 81 Q 118 77 132 82 Q 282 139 428 311 Q 528 444 534 455 C 551 480 512 545 499 518 Z" class="stroke1"/>
    <path d="M 534 455 Q 691 137 740 111 Q 782 98 945 83 Q 966 79 977 84 Q 989 90 980 97 Q 973 104 956 110 Q 775 198 729 244 Q 645 328 554 498 Q 479 642 432 671 Q 396 693 358 690 Q 348 691 341 688 Q 337 685 338 681 Q 338 678 398 647 Q 437 626 493 528 Q 496 524 499 518 L 534 455 Z" class="stroke2"/>
    <text x="499" y="510" style="transform-origin:499px 510px; transform:scale(1,-1);">1</text>
    <text x="342" y="683" style="transform-origin:342px 683px; transform:scale(1,-1);">2</text></g>
</svg>