<svg version="1.1" viewBox="0 0 1024 1024" xmlns="http://www.w3.org/2000/svg">
  <g stroke="lightgray" stroke-dasharray="1,1" stroke-width="1" transform="scale(4, 4)">
    <line x1="0" y1="0" x2="256" y2="256"/>
    <line x1="256" y1="0" x2="0" y2="256"/>
    <line x1="128" y1="0" x2="128" y2="256"/>
    <line x1="0" y1="128" x2="256" y2="128"/>
  </g>
  <g transform="scale(1, -1) translate(0, -900)">
    <style type="text/css">
        .stroke1 {fill: #9a3324;}
        .stroke2 {fill: #b5651d;}
        .stroke3 {fill: #2f6f4f;}
        .stroke4 {fill: #3f7a7a;}
        .stroke5 {fill: #4a5d8a;}
        .stroke6 {fill: #6b4c7a;}
        .stroke7 {fill: #7a5230;}
        .stroke8 {fill: #55575c;}
        .stroke9 {fill: #9a3324;}
        .stroke10 {fill: #b5651d;}
        .stroke11 {fill: #2f6f4f;}
        .stroke12 {fill: #3f7a7a;}
        .stroke13 {fill: #4a5d8a;}
        .stroke14 {fill: #6b4c7a;}
        .stroke15 {fill: #7a5230;}
        .stroke16 {fill: #55575c;}
        .stroke17 {fill: #9a3324;}
        .stroke18 {fill: #b5651d;}
        .stroke19 {fill: #2f6f4f;}
        .stroke20 {fill: #3f7a7a;}
        text {
            font-family: Helvetica;
            font-size: 50px;
            fill: #FFFFFF;
            paint-order: stroke;
            stroke: #000000;
            stroke-width: 4px;
            stroke-linecap: butt;
            stroke-linejoin: miter;
            font-weight: 800;
        }
    </style>

    <path d="M 317 465 Q 318 338 155 190 Q 136 178 79 126 Q 67 110 85 113 Q 110 114 146 137 Q 258 209 325 305 Q 368 363 406 409 Q 419 422 404 441 Q 355 486 329 484 Q 316 483 317 465 Z" class="stroke1"/>
    <path d="M 446 687 Q 507 636 530 577 Q 608 343 711 190 Q 732 163 846 151 Q 892 147 958 141 Q 983 140 984 146 Q 984 152 963 163 Q 756 269 675 396 Q 621 480 551 644 Q 530 690 483 702 Q 449 709 445 702 Q 438 692 446 687 Z" class="stroke2"/>
    <text x="331" y="470" style="transform-origin:331px 470px; transform:scale(1,-1);">1</text>
    <text x="452" y="695" style="transform-origin:452px 695px; transform:scale(1,-1);">2</text></g>
</svg>