<svg version="1.1" viewBox="0 0 1024 1024" xmlns="http://www.w3.org/2000/svg">
  <g stroke="lightgray" stroke-dasharray="1,1" stroke-width="1" transform="scale(4, 4)">
    <line x1="0" y1="0" x2="256" y2="256"/>
    <line x1="256" y1="0" x2="0" y2="256"/>
    <line x1="128" y1="0" x2="128" y2="256"/>
    <line x1="0" y1="128" x2="256" y2="128"/>
  </g>
  <g transform="scale(1, -1) translate(0, -900)">
    <style type="text/css">
        .stroke1 {fill: #9a3324;}
        .stroke2 {fill: #b5651d;}
        .stroke3 {fill: #2f6f4f;}
        .stroke4 {fill: #3f7a7a;}
        .stroke5 {fill: #4a5d8a;}
        .stroke6 {fill: #6b4c7a;}
        .stroke7 {fill: #7a5230;}
        .stroke8 {fill: #55575c;}
        .stroke9 {fill: #9a3324;}
        .stroke10 {fill: #b5651d;}
        .stroke11 {fill: #2f6f4f;}
        .stroke12 {fill: #3f7a7a;}
        .stroke13 {fill: #4a5d8a;}
        .stroke14 {fill: #6b4c7a;}
        .stroke15 {fill: #7a5230;}
        .stroke16 {fill: #55575c;}
        .stroke17 {fill: #9a3324;}
        .stroke18 {fill: #b5651d;}
        .stroke19 {fill: #2f6f4f;}
        .stroke20 {fill: #3f7a7a;}
        text {
            font-family: Helvetica;
            font-size: 50px;
            fill: #FFFFFF;
            paint-order: stroke;
            stroke: #000000;
            stroke-width: 4px;
            stroke-linecap: butt;
            stroke-linejoin: miter;
            font-weight: 800;
        }
    </style>

    <path d="M 295 571 Q 267 590 236 597 Q 227 600 221 594 Q 211 587 223 573 Q 281 477 292 248 Q 293 176 338 142 Q 339 141 343 139 Q 365 133 365 170 Q 365 174 365 177 L 360 223 Q 327 406 322 528 C 321 555 320 555 295 571 Z" class="stroke1"/>
    <path d="M 719 261 Q 755 472 821 538 Q 845 563 824 589 Q 802 607 729 642 Q 704 652 674 641 Q 515 587 295 571 C 265 569 293 522 322 528 Q 331 529 345 533 Q 493 555 634 577 Q 671 584 685 568 Q 707 549 703 505 Q 684 372 654 268 C 646 239 714 231 719 261 Z" class="stroke2"/>
    <path d="M 365 177 Q 372 177 383 178 Q 495 200 738 212 Q 751 213 754 224 Q 755 234 719 261 C 698 277 683 274 654 268 Q 491 235 360 223 C 330 220 335 176 365 177 Z" class="stroke3"/>
    <text x="229" y="584" style="transform-origin:229px 584px; transform:scale(1,-1);">1</text>
    <text x="304" y="569" style="transform-origin:304px 569px; transform:scale(1,-1);">2</text>
    <text x="369" y="185" style="transform-origin:369px 185px; transform:scale(1,-1);">3</text></g>
</svg>