<svg version="1.1" viewBox="0 0 1024 1024" xmlns="http://www.w3.org/2000/svg">
  <g stroke="lightgray" stroke-dasharray="1,1" stroke-width="1" transform="scale(4, 4)">
    <line x1="0" y1="0" x2="256" y2="256"/>
    <line x1="256" y1="0" x2="0" y2="256"/>
    <line x1="128" y1="0" x2="128" y2="256"/>
    <line x1="0" y1="128" x2="256" y2="128"/>
  </g>
  <g transform="scale(1, -1) translate(0, -900)">
    <style type="text/css">
        .stroke1 {fill: #9a3324;}
        .stroke2 {fill: #b5651d;}
        .stroke3 {fill: #2f6f4f;}
        .stroke4 {fill: #3f7a7a;}
        .stroke5 {fill: #4a5d8a;}
        .stroke6 {fill: #6b4c7a;}
        .stroke7 {fill: #7a5230;}
        .stroke8 {fill: #55575c;}
        .stroke9 {fill: #9a3324;}
        .stroke10 {fill: #b5651d;}
        .stroke11 {fill: #2f6f4f;}
        .stroke12 {fill: #3f7a7a;}
        .stroke13 {fill: #4a5d8a;}
        .stroke14 {fill: #6b4c7a;}
        .stroke15 {fill: #7a5230;}
        .stroke16 {fill: #55575c;}
        .stroke17 {fill: #9a3324;}
        .stroke18 {fill: #b5651d;}
        .stroke19 {fill: #2f6f4f;}
        .stroke20 {fill: #3f7a7a;}
        text {
            font-family: Helvetica;
            font-size: 50px;
            fill: #FFFFFF;
            paint-order: stroke;
            stroke: #000000;
            stroke-width: 4px;
            stroke-linecap: butt;
            stroke-linejoin: miter;
            font-weight: 800;
        }
    </style>

    <path d="M 494 476 Q 542 485 795 501 Q 817 502 822 512 Q 826 525 808 540 Q 750 580 707 569 Q 631 550 500 522 L 436 509 Q 331 490 213 469 Q 189 465 208 447 Q 241 420 294 432 Q 357 453 431 465 L 494 476 Z" class="stroke1"/>
    <path d="M 487 437 Q 491 456 494 476 L 500 522 Q 510 711 528 763 Q 534 776 523 786 Q 501 805 459 822 Q 434 832 414 825 Q 390 816 410 796 Q 444 762 444 726 Q 445 602 436 509 L 431 465 Q 398 275 310 179 Q 303 173 297 166 Q 251 118 148 55 Q 133 48 130 43 Q 124 36 144 34 Q 195 34 300 104 Q 385 173 414 218 Q 444 266 480 396 L 487 437 Z" class="stroke2"/>
    <path d="M 480 396 Q 501 357 575 245 Q 657 124 718 56 Q 746 22 774 22 Q 856 28 928 32 Q 959 33 959 41 Q 960 50 927 66 Q 753 144 719 174 Q 614 267 500 419 Q 493 429 487 437 C 469 461 465 422 480 396 Z" class="stroke3"/>
    <text x="210" y="458" style="transform-origin:210px 458px; transform:scale(1,-1);">1</text>
    <text x="416" y="810" style="transform-origin:416px 810px; transform:scale(1,-1);">2</text>
    <text x="486" y="430" style="transform-origin:486px 430px; transform:scale(1,-1);">3</text></g>
</svg>