<svg version="1.1" viewBox="0 0 1024 1024" xmlns="http://www.w3.org/2000/svg">
  <g stroke="lightgray" stroke-dasharray="1,1" stroke-width="1" transform="scale(4, 4)">
    <line x1="0" y1="0" x2="256" y2="256"/>
    <line x1="256" y1="0" x2="0" y2="256"/>
    <line x1="128" y1="0" x2="128" y2="256"/>
    <line x1="0" y1="128" x2="256" y2="128"/>
  </g>
  <g transform="scale(1, -1) translate(0, -900)">
    <style type="text/css">
        .stroke1 {fill: #9a3324;}
        .stroke2 {fill: #b5651d;}
        .stroke3 {fill: #2f6f4f;}
        .stroke4 {fill: #3f7a7a;}
        .stroke5 {fill: #4a5d8a;}
        .stroke6 {fill: #6b4c7a;}
        .stroke7 {fill: #7a5230;}
        .stroke8 {fill: #55575c;}
        .stroke9 {fill: #9a3324;}
        .stroke10 {fill: #b5651d;}
        .stroke11 {fill: #2f6f4f;}
        .stroke12 {fill: #3f7a7a;}
        .stroke13 {fill: #4a5d8a;}
        .stroke14 {fill: #6b4c7a;}
        .stroke15 {fill: #7a5230;}
        .stroke16 {fill: #55575c;}
        .stroke17 {fill: #9a3324;}
        .stroke18 {fill: #b5651d;}
        .stroke19 {fill: #2f6f4f;}
        .stroke20 {fill: #3f7a7a;}
        text {
            font-family: Helvetica;
            font-size: 50px;
            fill: #FFFFFF;
            paint-order: stroke;
            stroke: #000000;
            stroke-width: 4px;
            stroke-linecap: butt;
            stroke-linejoin: miter;
            font-weight: 800;
        }
    </style>

    <path d="M 544 561 Q 575 580 648 638 Q 679 666 700 671 Q 737 683 739 698 Q 740 708 705 746 Q 672 782 661 780 Q 657 783 644 778 Q 575 748 344 719 Q 323 720 309 722 Q 290 726 283 715 Q 280 708 288 697 Q 298 684 322 666 Q 343 650 354 650 Q 364 649 384 662 Q 420 690 607 732 Q 632 738 637 735 Q 643 731 642 723 Q 642 714 543 589 Q 534 580 529 573 C 509 550 519 545 544 561 Z" class="stroke1"/>
    <path d="M 529 573 Q 505 588 486 592 Q 474 596 466 591 Q 462 587 474 574 Q 495 544 508 451 L 513 407 Q 541 169 492 90 Q 489 83 482 81 Q 467 77 356 100 Q 349 100 346 97 Q 345 93 354 85 Q 429 30 470 -13 Q 483 -26 492 -24 Q 505 -23 527 -1 Q 575 44 576 136 Q 583 239 562 411 L 557 457 Q 551 505 549 542 Q 549 554 544 561 L 529 573 Z" class="stroke2"/>
    <path d="M 508 451 Q 499 452 299 429 Q 227 419 121 418 Q 108 418 106 406 Q 105 393 124 378 Q 142 365 174 353 Q 186 349 204 357 Q 222 363 297 375 Q 393 397 513 407 L 562 411 Q 769 430 888 417 Q 937 417 940 418 Q 940 421 942 421 Q 949 434 937 447 Q 864 513 800 491 Q 739 479 675 469 Q 605 463 557 457 L 508 451 Z" class="stroke3"/>
    <text x="294" y="711" style="transform-origin:294px 711px; transform:scale(1,-1);">1</text>
    <text x="472" y="588" style="transform-origin:472px 588px; transform:scale(1,-1);">2</text>
    <text x="119" y="405" style="transform-origin:119px 405px; transform:scale(1,-1);">3</text></g>
</svg>