<svg version="1.1" viewBox="0 0 1024 1024" xmlns="http://www.w3.org/2000/svg">
  <g stroke="lightgray" stroke-dasharray="1,1" stroke-width="1" transform="scale(4, 4)">
    <line x1="0" y1="0" x2="256" y2="256"/>
    <line x1="256" y1="0" x2="0" y2="256"/>
    <line x1="128" y1="0" x2="128" y2="256"/>
    <line x1="0" y1="128" x2="256" y2="128"/>
  </g>
  <g transform="scale(1, -1) translate(0, -900)">
    <style type="text/css">
        .stroke1 {fill: #9a3324;}
        .stroke2 {fill: #b5651d;}
        .stroke3 {fill: #2f6f4f;}
        .stroke4 {fill: #3f7a7a;}
        .stroke5 {fill: #4a5d8a;}
        .stroke6 {fill: #6b4c7a;}
        .stroke7 {fill: #7a5230;}
        .stroke8 {fill: #55575c;}
        .stroke9 {fill: #9a3324;}
        .stroke10 {fill: #b5651d;}
        .stroke11 {fill: #2f6f4f;}
        .stroke12 {fill: #3f7a7a;}
        .stroke13 {fill: #4a5d8a;}
        .stroke14 {fill: #6b4c7a;}
        .stroke15 {fill: #7a5230;}
        .stroke16 {fill: #55575c;}
        .stroke17 {fill: #9a3324;}
        .stroke18 {fill: #b5651d;}
        .stroke19 {fill: #2f6f4f;}
        .stroke20 {fill: #3f7a7a;}
        text {
            font-family: Helvetica;
            font-size: 50px;
            fill: #FFFFFF;
            paint-order: stroke;
            stroke: #000000;
            stroke-width: 4px;
            stroke-linecap: butt;
            stroke-linejoin: miter;
            font-weight: 800;
        }
    </style>

    <path d="M 349 664 Q 348 665 347 666 Q 322 687 292 696 Q 282 697 274 689 Q 270 682 279 670 Q 331 531 294 261 Q 287 216 271 169 Q 262 141 267 118 Q 277 81 291 65 Q 304 50 314 66 Q 324 79 332 102 L 339 137 Q 349 186 350 238 Q 350 316 351 391 L 352 420 Q 353 576 361 626 C 364 652 364 652 349 664 Z" class="stroke1"/>
    <path d="M 608 120 Q 641 78 665 39 Q 675 18 688 19 Q 707 20 724 59 Q 745 104 740 157 Q 728 310 721 593 Q 720 629 738 654 Q 748 669 738 681 Q 716 703 656 730 Q 635 740 617 729 Q 512 684 349 664 C 319 660 332 620 361 626 Q 410 635 590 672 Q 624 679 640 666 Q 691 615 658 164 Q 657 163 657 159 Q 653 143 640 144 C 621 121 602 128 608 120 Z" class="stroke2"/>
    <path d="M 351 391 Q 390 378 433 387 Q 493 399 554 411 Q 582 417 587 421 Q 596 428 591 437 Q 584 447 556 455 Q 531 461 450 435 Q 375 423 352 420 C 322 416 322 400 351 391 Z" class="stroke3"/>
    <path d="M 332 102 Q 345 98 361 100 Q 440 115 608 120 C 638 121 661 122 640 144 Q 633 153 614 166 Q 596 178 561 170 Q 438 146 339 137 C 309 134 303 108 332 102 Z" class="stroke4"/>
    <text x="284" y="684" style="transform-origin:284px 684px; transform:scale(1,-1);">1</text>
    <text x="359" y="660" style="transform-origin:359px 660px; transform:scale(1,-1);">2</text>
    <text x="357" y="413" style="transform-origin:357px 413px; transform:scale(1,-1);">3</text>
    <text x="340" y="106" style="transform-origin:340px 106px; transform:scale(1,-1);">4</text></g>
</svg>