<svg version="1.1" viewBox="0 0 1024 1024" xmlns="http://www.w3.org/2000/svg">
  <g stroke="lightgray" stroke-dasharray="1,1" stroke-width="1" transform="scale(4, 4)">
    <line x1="0" y1="0" x2="256" y2="256"/>
    <line x1="256" y1="0" x2="0" y2="256"/>
    <line x1="128" y1="0" x2="128" y2="256"/>
    <line x1="0" y1="128" x2="256" y2="128"/>
  </g>
  <g transform="scale(1, -1) translate(0, -900)">
    <style type="text/css">
        .stroke1 {fill: #9a3324;}
        .stroke2 {fill: #b5651d;}
        .stroke3 {fill: #2f6f4f;}
        .stroke4 {fill: #3f7a7a;}
        .stroke5 {fill: #4a5d8a;}
        .stroke6 {fill: #6b4c7a;}
        .stroke7 {fill: #7a5230;}
        .stroke8 {fill: #55575c;}
        .stroke9 {fill: #9a3324;}
        .stroke10 {fill: #b5651d;}
        .stroke11 {fill: #2f6f4f;}
        .stroke12 {fill: #3f7a7a;}
        .stroke13 {fill: #4a5d8a;}
        .stroke14 {fill: #6b4c7a;}
        .stroke15 {fill: #7a5230;}
        .stroke16 {fill: #55575c;}
        .stroke17 {fill: #9a3324;}
        .stroke18 {fill: #b5651d;}
        .stroke19 {fill: #2f6f4f;}
        .stroke20 {fill: #3f7a7a;}
        text {
            font-family: Helvetica;
            font-size: 50px;
            fill: #FFFFFF;
            paint-order: stroke;
            stroke: #000000;
            stroke-width: 4px;
            stroke-linecap: butt;
            stroke-linejoin: miter;
            font-weight: 800;
        }
    </style>

    <path d="M 524 533 Q 537 536 755 560 Q 768 557 779 573 Q 780 586 754 600 Q 709 627 634 603 Q 526 582 524 580 L 479 572 Q 404 563 234 546 Q 200 542 226 521 Q 265 491 291 494 Q 309 503 446 521 L 524 533 Z" class="stroke1"/>
    <path d="M 524 580 Q 524 682 544 758 Q 559 783 532 802 Q 516 814 485 833 Q 460 851 439 834 Q 433 828 440 813 Q 474 762 476 711 Q 477 647 479 572 L 477 458 Q 474 208 466 155 Q 442 46 456 5 Q 460 -7 466 -21 Q 473 -40 481 -43 Q 488 -50 495 -41 Q 504 -37 514 -15 Q 524 10 523 44 Q 522 90 523 480 L 524 580 Z" class="stroke2"/>
    <path d="M 446 521 Q 368 337 127 132 Q 114 119 124 117 Q 134 113 146 119 Q 276 176 403 344 Q 472 450 477 458 C 528 538 464 563 446 521 Z" class="stroke3"/>
    <path d="M 523 480 Q 607 338 716 186 Q 737 159 774 157 Q 901 147 942 150 Q 954 151 957 157 Q 957 164 941 173 Q 773 251 721 302 Q 628 398 523 532 Q 523 533 524 533 L 524 533 C 506 558 508 506 523 480 Z" class="stroke4"/>
    <text x="228" y="534" style="transform-origin:228px 534px; transform:scale(1,-1);">1</text>
    <text x="453" y="825" style="transform-origin:453px 825px; transform:scale(1,-1);">2</text>
    <text x="474" y="519" style="transform-origin:474px 519px; transform:scale(1,-1);">3</text>
    <text x="528" y="513" style="transform-origin:528px 513px; transform:scale(1,-1);">4</text></g>
</svg>