<svg version="1.1" viewBox="0 0 1024 1024" xmlns="http://www.w3.org/2000/svg">
  <g stroke="lightgray" stroke-dasharray="1,1" stroke-width="1" transform="scale(4, 4)">
    <line x1="0" y1="0" x2="256" y2="256"/>
    <line x1="256" y1="0" x2="0" y2="256"/>
    <line x1="128" y1="0" x2="128" y2="256"/>
    <line x1="0" y1="128" x2="256" y2="128"/>
  </g>
  <g transform="scale(1, -1) translate(0, -900)">
    <style type="text/css">
        .stroke1 {fill: #9a3324;}
        .stroke2 {fill: #b5651d;}
        .stroke3 {fill: #2f6f4f;}
        .stroke4 {fill: #3f7a7a;}
        .stroke5 {fill: #4a5d8a;}
        .stroke6 {fill: #6b4c7a;}
        .stroke7 {fill: #7a5230;}
        .stroke8 {fill: #55575c;}
        .stroke9 {fill: #9a3324;}
        .stroke10 {fill: #b5651d;}
        .stroke11 {fill: #2f6f4f;}
        .stroke12 {fill: #3f7a7a;}
        .stroke13 {fill: #4a5d8a;}
        .stroke14 {fill: #6b4c7a;}
        .stroke15 {fill: #7a5230;}
        .stroke16 {fill: #55575c;}
        .stroke17 {fill: #9a3324;}
        .stroke18 {fill: #b5651d;}
        .stroke19 {fill: #2f6f4f;}
        .stroke20 {fill: #3f7a7a;}
        text {
            font-family: Helvetica;
            font-size: 50px;
            fill: #FFFFFF;
            paint-order: stroke;
            stroke: #000000;
            stroke-width: 4px;
            stroke-linecap: butt;
            stroke-linejoin: miter;
            font-weight: 800;
        }
    </style>

    <path d="M 544 136 Q 548 286 552 424 L 553 451 Q 556 622 577 716 Q 581 731 558 749 Q 516 770 488 774 Q 469 778 460 768 Q 451 758 461 741 Q 498 689 497 653 Q 510 412 495 131 C 493 101 543 106 544 136 Z" class="stroke1"/>
    <path d="M 552 424 Q 603 406 652 420 Q 716 433 781 449 Q 812 456 816 461 Q 825 471 820 479 Q 811 492 780 498 Q 747 504 715 490 Q 682 477 645 468 Q 605 458 557 452 Q 554 452 553 451 C 523 446 523 433 552 424 Z" class="stroke2"/>
    <path d="M 347 116 Q 334 323 339 400 Q 343 425 326 439 Q 301 458 270 469 Q 254 475 244 468 Q 235 461 243 444 Q 267 398 278 350 Q 285 302 302 113 C 305 83 349 86 347 116 Z" class="stroke3"/>
    <path d="M 495 131 Q 423 127 347 116 L 302 113 Q 217 106 128 98 Q 103 97 120 75 Q 156 39 201 49 Q 498 118 900 96 Q 901 97 904 96 Q 928 95 934 105 Q 941 118 922 136 Q 859 184 788 170 Q 691 155 544 136 L 495 131 Z" class="stroke4"/>
    <text x="474" y="756" style="transform-origin:474px 756px; transform:scale(1,-1);">1</text>
    <text x="557" y="444" style="transform-origin:557px 444px; transform:scale(1,-1);">2</text>
    <text x="254" y="457" style="transform-origin:254px 457px; transform:scale(1,-1);">3</text>
    <text x="124" y="86" style="transform-origin:124px 86px; transform:scale(1,-1);">4</text></g>
</svg>