<svg version="1.1" viewBox="0 0 1024 1024" xmlns="http://www.w3.org/2000/svg">
  <g stroke="lightgray" stroke-dasharray="1,1" stroke-width="1" transform="scale(4, 4)">
    <line x1="0" y1="0" x2="256" y2="256"/>
    <line x1="256" y1="0" x2="0" y2="256"/>
    <line x1="128" y1="0" x2="128" y2="256"/>
    <line x1="0" y1="128" x2="256" y2="128"/>
  </g>
  <g transform="scale(1, -1) translate(0, -900)">
    <style type="text/css">
        .stroke1 {fill: #9a3324;}
        .stroke2 {fill: #b5651d;}
        .stroke3 {fill: #2f6f4f;}
        .stroke4 {fill: #3f7a7a;}
        .stroke5 {fill: #4a5d8a;}
        .stroke6 {fill: #6b4c7a;}
        .stroke7 {fill: #7a5230;}
        .stroke8 {fill: #55575c;}
        .stroke9 {fill: #9a3324;}
        .stroke10 {fill: #b5651d;}
        .stroke11 {fill: #2f6f4f;}
        .stroke12 {fill: #3f7a7a;}
        .stroke13 {fill: #4a5d8a;}
        .stroke14 {fill: #6b4c7a;}
        .stroke15 {fill: #7a5230;}
        .stroke16 {fill: #55575c;}
        .stroke17 {fill: #9a3324;}
        .stroke18 {fill: #b5651d;}
        .stroke19 {fill: #2f6f4f;}
        .stroke20 {fill: #3f7a7a;}
        text {
            font-family: Helvetica;
            font-size: 50px;
            fill: #FFFFFF;
            paint-order: stroke;
            stroke: #000000;
            stroke-width: 4px;
            stroke-linecap: butt;
            stroke-linejoin: miter;
            font-weight: 800;
        }
    </style>

    <path d="M 226 483 Q 254 443 285 393 Q 295 375 312 372 Q 324 369 333 381 Q 342 396 342 430 Q 342 472 235 536 Q 220 543 213 543 Q 206 540 204 526 Q 205 513 226 483 Z" class="stroke1"/>
    <path d="M 690 568 Q 677 547 584 441 Q 571 422 592 425 Q 638 449 738 513 Q 762 532 791 543 Q 816 553 805 575 Q 789 597 759 615 Q 731 633 715 629 Q 700 628 704 612 Q 708 590 690 568 Z" class="stroke2"/>
    <path d="M 511 382 Q 520 439 529 618 Q 530 669 548 728 Q 554 741 543 750 Q 521 769 479 785 Q 454 795 434 789 Q 410 779 430 759 Q 464 725 465 690 Q 469 500 448 374 Q 427 209 284 106 Q 244 81 186 49 Q 170 43 167 39 Q 160 32 179 29 Q 197 28 258 48 Q 301 61 365 101 Q 414 131 442 172 Q 484 232 504 341 L 511 382 Z" class="stroke3"/>
    <path d="M 504 341 Q 597 175 715 40 Q 740 9 767 9 Q 843 13 911 17 Q 939 18 940 25 Q 941 32 910 48 Q 753 117 709 157 Q 592 268 511 382 C 493 406 489 367 504 341 Z" class="stroke4"/>
    <text x="216" y="534" style="transform-origin:216px 534px; transform:scale(1,-1);">1</text>
    <text x="714" y="618" style="transform-origin:714px 618px; transform:scale(1,-1);">2</text>
    <text x="436" y="773" style="transform-origin:436px 773px; transform:scale(1,-1);">3</text>
    <text x="513" y="375" style="transform-origin:513px 375px; transform:scale(1,-1);">4</text></g>
</svg>